<?xml version="1.0" encoding="UTF-8" standalone="no"?>
<!-- Created with Inkscape (http://www.inkscape.org/) -->

<svg
   version="1.1"
   id="svg372"
   width="231.67999"
   height="183.36"
   viewBox="0 0 231.67999 183.36"
   sodipodi:docname="logo_Zavin.svg"
   inkscape:version="1.2.2 (b0a8486541, 2022-12-01)"
   xmlns:inkscape="http://www.inkscape.org/namespaces/inkscape"
   xmlns:sodipodi="http://sodipodi.sourceforge.net/DTD/sodipodi-0.dtd"
   xmlns="http://www.w3.org/2000/svg"
   xmlns:svg="http://www.w3.org/2000/svg">
  <defs
     id="defs376" />
  <sodipodi:namedview
     id="namedview374"
     pagecolor="#ffffff"
     bordercolor="#000000"
     borderopacity="0.25"
     inkscape:showpageshadow="2"
     inkscape:pageopacity="0.0"
     inkscape:pagecheckerboard="0"
     inkscape:deskcolor="#d1d1d1"
     showgrid="false"
     inkscape:zoom="1.7479276"
     inkscape:cx="-17.163182"
     inkscape:cy="61.787457"
     inkscape:window-width="1600"
     inkscape:window-height="838"
     inkscape:window-x="0"
     inkscape:window-y="0"
     inkscape:window-maximized="1"
     inkscape:current-layer="g378" />
  <g
     inkscape:groupmode="layer"
     inkscape:label="Image"
     id="g378">
    <g
       id="g384"
       transform="translate(-0.43004563,-0.70895206)"
       style="fill:#e85917;fill-opacity:1">
      <path
         style="fill:#e85917;fill-opacity:1;stroke-width:0.32"
         d="m 109.75675,167.76 -5.91675,-6 6,5.91676 c 5.57461,5.49726 6.14454,6.08324 5.91675,6.08324 -0.0458,0 -2.74578,-2.7 -6,-6 z m 85.19372,-7.04 c -0.0388,-7.084 0.0375,-12.8801 0.16952,-12.88022 0.2184,-2.1e-4 0.21342,9.91281 -0.0107,21.28022 -0.0486,2.464 -0.12004,-1.316 -0.15881,-8.4 z m -73.67048,7.17987 c 0,-0.0551 0.468,-0.52307 1.04,-1.04 l 1.04,-0.93987 -0.93986,1.04 c -0.87609,0.96943 -1.14014,1.18709 -1.14014,0.93987 z M 167.82444,154.4 c -1e-4,-6.336 0.0426,-8.97335 0.095,-5.86079 0.0523,3.11257 0.0524,8.29657 1.9e-4,11.52 -0.0522,3.22344 -0.0951,0.67679 -0.0952,-5.65921 z m -152.144441,9.31918 c 0,-0.0665 0.252,-0.31845 0.56,-0.56 0.507538,-0.39804 0.518857,-0.38672 0.120818,0.12082 -0.418038,0.53304 -0.680818,0.70255 -0.680818,0.43918 z m 54.340788,-3.6388 c 3.223434,-0.0522 8.407434,-0.0521 11.52,1.9e-4 3.112563,0.0524 0.475209,0.0951 -5.86079,0.095 -6.336,-1.1e-4 -8.882646,-0.0429 -5.65921,-0.0952 z m -50.820788,-0.2012 c 0,-0.0665 0.252,-0.31845 0.56,-0.56 0.507538,-0.39804 0.518856,-0.38672 0.120818,0.12082 -0.418038,0.53304 -0.680818,0.70255 -0.680818,0.43918 z M 140.62533,147.84 c 0,-6.776 0.0424,-9.548 0.0942,-6.16 0.0518,3.388 0.0518,8.932 0,12.32 -0.0518,3.388 -0.0942,0.616 -0.0942,-6.16 z m -117.905331,8.19918 c 0,-0.0664 0.252,-0.31845 0.56,-0.56 0.507538,-0.39804 0.518856,-0.38672 0.120818,0.12082 -0.418038,0.53304 -0.680818,0.70255 -0.680818,0.43918 z m 3.84,-4.16 c 0,-0.0665 0.252,-0.31845 0.56,-0.56 0.507538,-0.39804 0.518856,-0.38672 0.120817,0.12082 -0.418038,0.53304 -0.680817,0.70255 -0.680817,0.43918 z m 3.52,-3.84 c 0,-0.0664 0.252,-0.31845 0.56,-0.56 0.507538,-0.39804 0.518856,-0.38672 0.120817,0.12082 -0.418038,0.53304 -0.680817,0.70255 -0.680817,0.43918 z m 3.52,-3.84 c 0,-0.0665 0.252,-0.31845 0.56,-0.56 0.507539,-0.39804 0.518857,-0.38672 0.120819,0.12082 -0.418039,0.53304 -0.680819,0.70255 -0.680819,0.43918 z m 12.479999,-2.56 c 0,-0.0665 0.252,-0.31845 0.56,-0.56 0.507539,-0.39804 0.518858,-0.38672 0.120819,0.12082 -0.418038,0.53304 -0.680819,0.70255 -0.680819,0.43918 z m 87.001752,-6.37016 c 0.13871,-0.13803 1.89606,-0.20933 3.90522,-0.15844 l 3.65302,0.0925 -3.90522,0.15845 c -2.14786,0.0871 -3.79173,0.0455 -3.65302,-0.0925 z M 19.782963,135.12014 c 5.336629,-0.0493 13.976629,-0.0492 19.199999,8e-5 5.223369,0.0493 0.857036,0.0896 -9.702963,0.0896 -10.56,-4e-5 -14.833666,-0.0404 -9.497036,-0.0897 z m 46.399997,0 c 5.336631,-0.0493 13.97663,-0.0492 19.2,8e-5 5.223369,0.0493 0.857036,0.0896 -9.702963,0.0896 -10.56,-4e-5 -14.833667,-0.0404 -9.497037,-0.0897 z m 38.05704,0.003 c 1.1,-0.0625 2.9,-0.0625 4,0 1.1,0.0625 0.2,0.11362 -2,0.11362 -2.2,0 -3.1,-0.0511 -2,-0.11362 z m 51.86228,-0.003 c 4.45626,-0.0502 11.65626,-0.0502 16,1.1e-4 4.34374,0.0503 0.69771,0.0914 -8.10229,0.0913 -8.8,-6e-5 -12.35397,-0.0412 -7.89771,-0.0914 z m 33.27025,0.003 c 1.1069,-0.0627 2.8349,-0.0622 3.84,0.001 1.0051,0.0633 0.0995,0.11457 -2.01254,0.11394 -2.112,-6.4e-4 -2.93436,-0.0524 -1.82746,-0.11508 z m 30.54746,6.4e-4 c 1.012,-0.0635 2.668,-0.0635 3.68,0 1.012,0.0635 0.184,0.11547 -1.84,0.11547 -2.024,0 -2.852,-0.052 -1.84,-0.11547 z M 64.138733,98.4 c -1.95e-4,-4.4 0.04487,-6.244384 0.100154,-4.09863 0.05528,2.145756 0.05544,5.74576 3.2e-4,8 C 64.184122,104.55562 64.138893,102.8 64.138698,98.4 Z m 53.759647,0.16 c 0,-4.312 0.0453,-6.076 0.10065,-3.92 0.0554,2.156 0.0554,5.684 0,7.84 -0.0554,2.156 -0.10065,0.392 -0.10065,-3.92 z M 225.43609,55.52 c 1e-5,-27.984 0.0377,-39.38466 0.0839,-25.334799 0.0461,14.049861 0.0461,36.945861 -1e-5,50.879999 -0.0461,13.934141 -0.0839,2.4388 -0.0839,-25.5452 z M 10.067679,90.16 C 9.9839506,89.94 9.9524799,70.608 9.9977448,47.2 l 0.0823,-42.56 0.159977,42.960013 c 0.08799,23.628006 0.119458,42.960006 0.06993,42.96 C 10.260433,90.560006 10.151408,90.38 10.067679,90.16 Z M 78.339997,78.501405 c 0.230998,-0.09244 0.506998,-0.08107 0.613334,0.02525 0.106333,0.106333 -0.08267,0.181965 -0.42,0.16807 -0.372784,-0.01536 -0.448608,-0.09118 -0.193334,-0.193331 z"
         id="path400" />
      <path
         style="fill:#e85917;fill-opacity:1;stroke-width:0.32"
         d="m 12.799999,166.91918 c 0,-0.0665 0.252,-0.31845 0.56,-0.56 0.507538,-0.39804 0.518857,-0.38672 0.120818,0.12082 -0.418038,0.53304 -0.680818,0.70255 -0.680818,0.43918 z m 3.84,-4.16 c 0,-0.0664 0.252,-0.31845 0.56,-0.56 0.507538,-0.39804 0.518857,-0.38672 0.120818,0.12082 -0.418038,0.53304 -0.680818,0.70255 -0.680818,0.43918 z m 3.52,-3.84 c 0,-0.0665 0.252,-0.31845 0.56,-0.56 0.507538,-0.39804 0.518856,-0.38672 0.120818,0.12082 -0.418038,0.53304 -0.680818,0.70255 -0.680818,0.43918 z M 131.83999,157.6 c 0.41336,-0.44 0.82357,-0.8 0.91157,-0.8 0.088,0 -0.17821,0.36 -0.59157,0.8 -0.41336,0.44 -0.82356,0.8 -0.91156,0.8 -0.088,0 0.1782,-0.36 0.59156,-0.8 z m 1.10322,-11.52 c -1.2e-4,-5.808 0.0431,-8.22915 0.0961,-5.38032 0.053,2.84882 0.0531,7.60082 2.2e-4,10.56 -0.0529,2.95917 -0.0962,0.62832 -0.0963,-5.17968 z m -99.663211,9.63918 c 0,-0.0665 0.252,-0.31845 0.56,-0.56 0.507539,-0.39804 0.518857,-0.38672 0.120819,0.12082 -0.418039,0.53304 -0.680819,0.70255 -0.680819,0.43918 z m -9.6,-0.64 c 0,-0.0665 0.252,-0.31845 0.56,-0.56 0.507538,-0.39804 0.518856,-0.38672 0.120818,0.12082 -0.418039,0.53304 -0.680818,0.70255 -0.680818,0.43918 z m 7.36,-8 c 0,-0.0665 0.252,-0.31845 0.56,-0.56 0.507539,-0.39804 0.518857,-0.38672 0.120817,0.12082 -0.418038,0.53304 -0.680817,0.70255 -0.680817,0.43918 z M 171.5858,98.498886 c -0.0362,-4.345612 0.0422,-7.968131 0.17419,-8.050035 0.132,-0.08191 0.20302,2.249594 0.15783,5.181114 -0.15172,9.841155 -0.26575,10.826445 -0.33202,2.868921 z M 95.127151,63.04 c 0,-0.792 0.06241,-1.116 0.138678,-0.72 0.07628,0.396 0.07628,1.044 0,1.44 -0.07627,0.396 -0.138678,0.072 -0.138678,-0.72 z M 63.919997,4.5600064 c 29.611999,-0.045027 78.067993,-0.045027 107.679993,0 29.612,0.045027 5.384,0.081866 -53.84,0.081866 -59.223993,0 -83.451991,-0.03684 -53.839993,-0.081866 z"
         id="path398" />
      <path
         style="fill:#e85917;fill-opacity:1;stroke-width:0.32"
         d="m 10.015892,171.84 c 0,-0.968 0.05999,-1.364 0.133309,-0.88 0.07332,0.484 0.07332,1.276 0,1.76 -0.07332,0.484 -0.133309,0.088 -0.133309,-0.88 z m 77.159554,-4.96 c 2.62e-4,-3.696 0.04684,-5.16417 0.103513,-3.26261 0.05668,1.90157 0.05646,4.92557 -3.2e-4,6.72 -0.05693,1.79444 -0.103302,0.23861 -0.10304,-3.45739 z M 187.3501,154.56 c 0,-10.472 0.0404,-14.756 0.0897,-9.52 0.0493,5.236 0.0493,13.804 0,19.04 -0.0493,5.236 -0.0897,0.952 -0.0897,-9.52 z m 38.08,0 c 0,-10.472 0.0404,-14.756 0.0897,-9.52 0.0494,5.236 0.0494,13.804 0,19.04 -0.0493,5.236 -0.0897,0.952 -0.0897,-9.52 z M 13.759999,165.95918 c 0,-0.0665 0.252,-0.31845 0.56,-0.56 0.507538,-0.39804 0.518857,-0.38672 0.120818,0.12082 -0.418038,0.53304 -0.680818,0.70255 -0.680818,0.43918 z M 24.529101,165.84 c -0.135345,-0.21849 9.284117,-0.21308 19.790897,0.0114 2.288,0.0489 -1.195501,0.12031 -7.741113,0.15875 -6.545614,0.0384 -11.968016,-0.0381 -12.049784,-0.17011 z m 129.630889,0.004 5.84,-0.0976 V 154.4 143.05412 l -5.92025,-0.0979 -5.92026,-0.0979 6.00026,0.0109 6.00025,0.0109 v 11.52 11.52 l -5.92,0.0106 -5.92,0.0106 5.84,-0.0976 z m 16.64,-0.002 c 1.628,-0.0581 4.292,-0.0581 5.92,0 1.628,0.0581 0.296,0.1056 -2.96,0.1056 -3.256,0 -4.588,-0.0475 -2.96,-0.1056 z M 26.559999,163.07918 c 0,-0.0665 0.252,-0.31845 0.56,-0.56 0.507538,-0.39804 0.518856,-0.38672 0.120817,0.12082 -0.418038,0.53304 -0.680817,0.70255 -0.680817,0.43918 z m 102.719991,-2.85931 c 0,-0.0551 0.468,-0.52307 1.04,-1.04 l 1.04,-0.93987 -0.93986,1.04 c -0.87609,0.96943 -1.14014,1.18709 -1.14014,0.93987 z M 87.166255,147.68 c 6.4e-4,-2.464 0.05073,-3.4297 0.111626,-2.146 0.0609,1.2837 0.06049,3.2997 -9.6e-4,4.48 -0.06134,1.1803 -0.111165,0.13 -0.110666,-2.334 z m -59.006256,2.59918 c 0,-0.0665 0.252,-0.31845 0.56,-0.56 0.507538,-0.39804 0.518856,-0.38672 0.120817,0.12082 -0.418038,0.53304 -0.680817,0.70255 -0.680817,0.43918 z m -18.101882,-7.66081 c -0.088987,-0.2319 -0.1148371,-1.9239 -0.05744,-3.76 l 0.104352,-3.33837 0.06749,3.5962 0.06749,3.59619 12.239999,0.0877 12.24,0.0877 -12.250043,0.0761 c -9.893895,0.0615 -12.281162,-0.005 -12.411839,-0.34555 z m 59.96267,0.18201 c 3.223434,-0.0522 8.407434,-0.0521 11.52,1.9e-4 3.112563,0.0524 0.475209,0.0951 -5.86079,0.095 -6.336,-1.1e-4 -8.882646,-0.0429 -5.65921,-0.0952 z m 100.779203,0.001 c 1.628,-0.0581 4.292,-0.0581 5.92,0 1.628,0.0581 0.296,0.1056 -2.96,0.1056 -3.256,0 -4.588,-0.0475 -2.96,-0.1056 z M 90.559996,74.08 c 0.41336,-0.44 0.823562,-0.8 0.911562,-0.8 0.088,0 -0.178202,0.36 -0.591562,0.8 -0.41336,0.44 -0.823561,0.8 -0.911561,0.8 -0.088,0 0.178201,-0.36 0.591561,-0.8 z M 68.119178,74 c -0.398039,-0.507539 -0.38672,-0.518858 0.120819,-0.120819 0.308,0.241552 0.56,0.493552 0.56,0.56 0,0.263373 -0.262781,0.09386 -0.680819,-0.439181 z M 63.77152,62.88 c 0.0026,-0.88 0.06455,-1.202019 0.138103,-0.7156 0.07355,0.486419 0.07159,1.206419 -0.0044,1.6 -0.07596,0.393581 -0.136135,-0.0044 -0.133735,-0.8844 z m 26.764255,-10.96 -0.775779,-0.88 0.88,0.775779 C 91.462489,52.540864 91.666745,52.8 91.415775,52.8 c -0.05732,0 -0.453318,-0.396 -0.88,-0.88 z"
         id="path396" />
      <path
         style="fill:#e85917;fill-opacity:1;stroke-width:0.32"
         d="m 127.35999,162.13987 c 0,-0.0551 0.468,-0.52307 1.04,-1.04 l 1.04,-0.93987 -0.93986,1.04 c -0.87609,0.96943 -1.14014,1.18709 -1.14014,0.93987 z M 102.22534,147.84 c 0,-6.776 0.0424,-9.548 0.0942,-6.16 0.0518,3.388 0.0518,8.932 0,12.32 -0.0518,3.388 -0.0942,0.616 -0.0942,-6.16 z m -34.225343,4.57158 c 10.551072,-0.22488 19.286338,-0.23016 19.150918,-0.0116 -0.08178,0.132 -5.360192,0.20856 -11.729805,0.17013 -6.369612,-0.0384 -9.709113,-0.10978 -7.421113,-0.15854 z M 117.49052,105.6 c 0,-0.44 0.0726,-0.62 0.1614,-0.4 0.0888,0.22 0.0888,0.58 0,0.8 -0.0888,0.22 -0.1614,0.04 -0.1614,-0.4 z m -53.8621,-1.64313 c -0.05963,-1.07972 -0.03018,-4.643718 0.06545,-7.919996 L 63.867744,90.08 63.933869,98 c 0.06305,7.55118 -0.07197,10.1843 -0.305449,5.95687 z M 117.5768,97.6 c 0,-3.96 0.0459,-5.58 0.10208,-3.6 0.0561,1.98 0.0561,5.22 0,7.2 -0.0562,1.98 -0.10208,0.36 -0.10208,-3.6 z m -15.6568,3.84 c -0.422,-0.18134 -0.4765,-0.28101 -0.16,-0.29261 0.264,-0.01 0.696,0.122 0.96,0.29261 0.58495,0.37802 0.0797,0.37802 -0.8,0 z m 107.29999,-0.2186 c 0.231,-0.0924 0.507,-0.0811 0.61334,0.0252 0.10633,0.10634 -0.0827,0.18197 -0.42,0.16807 -0.37279,-0.0154 -0.44861,-0.0912 -0.19334,-0.19333 z m -59.94,-1.7014 c -0.52173,-0.224195 -0.54,-0.279174 -0.0989,-0.297507 0.29761,-0.01238 0.63011,0.121507 0.73888,0.297507 0.22741,0.367962 0.21629,0.367962 -0.64,0 z m -138.884587,-52 c 9e-6,-23.584 0.03806,-33.184778 0.08457,-21.335062 0.0465,11.849715 0.0465,31.145715 -1.6e-5,42.88 C 10.433441,80.799222 10.395393,71.104 10.395403,47.52 Z m 67.933051,31.28528 c 0.752653,-0.0676 1.904653,-0.06665 2.56,0.0022 0.655347,0.06876 0.03954,0.124067 -1.368457,0.122906 -1.408,-0.0013 -1.944196,-0.05742 -1.191543,-0.125021 z M 75.039997,78.4 c -0.815431,-0.350403 0.02586,-0.350403 1.12,0 0.643113,0.205962 0.674492,0.258048 0.16,0.26561 -0.352,0.0052 -0.928,-0.114349 -1.28,-0.26561 z m 7.439999,0.10807 c 0.22,-0.08877 0.58,-0.08877 0.8,0 0.22,0.08877 0.04,0.161405 -0.4,0.161405 -0.44,0 -0.62,-0.07263 -0.4,-0.161405 z m 2.27674,-0.600595 c 0.592208,-0.25711 1.168207,-0.462371 1.279999,-0.456134 0.416336,0.02323 -1.41558,0.925933 -1.876739,0.924793 -0.264,-6.4e-4 0.0045,-0.211548 0.59674,-0.468659 z M 73.279997,77.76 c -0.264,-0.170611 -0.336,-0.310198 -0.16,-0.310198 0.176,0 0.536,0.139587 0.8,0.310198 0.264,0.170611 0.336,0.310198 0.16,0.310198 -0.176,0 -0.536,-0.139587 -0.8,-0.310198 z m -1.458839,-0.817654 c -0.596486,-0.477885 -0.592563,-0.483792 0.09884,-0.14874 0.396,0.191901 0.72,0.415844 0.72,0.497652 0,0.24487 -0.165955,0.174156 -0.81884,-0.348912 z m 14.898838,0.162038 c 0.264,-0.1792 0.768,-0.473123 1.12,-0.653168 0.502967,-0.257261 0.478247,-0.186448 -0.115449,0.330717 -0.415501,0.361936 -0.919501,0.655862 -1.12,0.653168 -0.200503,-0.0026 -0.148551,-0.151517 0.115449,-0.330717 z m -16.879999,-1.3012 c -0.572,-0.366317 -1.04,-0.820992 -1.04,-1.01039 0,-0.189396 0.396,0.0026 0.88,0.426633 0.484,0.424042 1.0168,0.881143 1.184,1.015779 0.586845,0.472554 0.0055,0.22728 -1.024,-0.432022 z M 89.107532,75.53377 c 0.697027,-0.770202 0.856755,-0.821536 0.61768,-0.198512 -0.09609,0.250393 -0.407491,0.544588 -0.692016,0.653772 -0.424998,0.163085 -0.411731,0.08184 0.07434,-0.45526 z M 67.154288,73.2 c -0.51744,-0.737894 -0.565171,-0.908211 -0.164316,-0.586317 0.570287,0.457952 1.319644,1.626317 1.043075,1.626317 -0.08221,0 -0.477648,-0.468 -0.878759,-1.04 z m 24.760626,-0.450045 c 0.305207,-0.346016 1.001911,-1.412307 1.548234,-2.369539 1.032365,-1.808842 1.059875,-1.702362 0.144826,0.56056 -0.298234,0.737536 -0.926036,1.587827 -1.395111,1.889536 -0.840502,0.540608 -0.844822,0.53944 -0.297949,-0.08056 z M 65.265328,70.372592 c -0.196451,-0.367072 -0.296908,-0.72768 -0.223238,-0.80135 0.07367,-0.07367 0.29825,0.226662 0.499066,0.667404 0.440982,0.967853 0.226268,1.072122 -0.275828,0.133946 z M 64.549671,68.90129 C 64.464746,68.757581 64.30673,68.136 64.198528,67.52 l -0.196729,-1.12 0.480371,1.252061 c 0.427731,1.114857 0.471974,1.933664 0.0675,1.249229 z M 63.754237,65.28 c 0,-0.616 0.06586,-0.868 0.146346,-0.56 0.08049,0.308 0.08049,0.812 0,1.12 -0.08049,0.308 -0.146346,0.056 -0.146346,-0.56 z m -0.01184,-4.64 c 0.0065,-0.528 0.07824,-0.705261 0.159373,-0.39391 0.08113,0.31135 0.0758,0.74335 -0.01187,0.96 C 63.80224,61.422739 63.73586,61.168 63.742381,60.64 Z m 31.444456,0.45871 c -0.116009,-0.187708 -0.142297,-0.40992 -0.05842,-0.493801 0.08388,-0.08388 0.23778,0.0697 0.342,0.341289 0.216378,0.563876 0.03197,0.66306 -0.283584,0.152512 z M 64.038775,59.2 c -0.0054,-0.264 0.187897,-0.912 0.429667,-1.44 0.565888,-1.235859 0.574192,-0.661024 0.01155,0.8 -0.237219,0.616 -0.43577,0.904 -0.441222,0.64 z m 29.901794,-2.466198 c -0.173658,-0.456064 -0.136903,-0.49282 0.179136,-0.179136 0.218694,0.217068 0.317014,0.475276 0.218489,0.573801 -0.09852,0.09853 -0.277456,-0.07908 -0.397625,-0.394665 z M 65.051946,56.112653 C 65.189856,55.13985 69.318803,50.24 70.000647,50.24 c 0.120624,0 -0.584912,0.828 -1.567856,1.84 -0.982944,1.012 -2.167671,2.488 -2.63273,3.28 -0.513363,0.874272 -0.807273,1.169965 -0.748115,0.752653 z m 28.06805,-1.179319 c 0,-0.293334 -0.144,-0.533334 -0.32,-0.533334 -0.176,0 -0.32,-0.144 -0.32,-0.32 0,-0.176 0.134298,-0.32 0.298435,-0.32 0.360327,0 0.797731,1.250499 0.530784,1.51745 -0.10407,0.10407 -0.189219,-0.05078 -0.189219,-0.344116 z m -1.437734,-1.80967 c -0.112109,-0.181395 0.01635,-0.23504 0.301113,-0.125763 0.554375,0.212733 0.655805,0.442099 0.195507,0.442099 -0.165612,0 -0.389094,-0.142352 -0.49662,-0.316336 z M 89.426838,50.85871 c -0.11601,-0.187708 -0.142298,-0.40992 -0.05842,-0.493801 0.08388,-0.08388 0.237779,0.0697 0.342,0.341289 0.216377,0.563876 0.03197,0.66306 -0.283584,0.152512 z M 70.399997,49.92 c 0,-0.176 0.152499,-0.32 0.338886,-0.32 0.186388,0 0.249888,0.144 0.141114,0.32 -0.108774,0.176 -0.261274,0.32 -0.338886,0.32 -0.07761,0 -0.141114,-0.144 -0.141114,-0.32 z m 17.599999,-0.309958 c 0,-0.170474 0.216,-0.227069 0.48,-0.125764 0.264,0.101309 0.48,0.240788 0.48,0.309959 0,0.06917 -0.216,0.125763 -0.48,0.125763 -0.264,0 -0.48,-0.139482 -0.48,-0.309958 z M 71.999997,48.990461 c 0,-0.265712 1.312675,-0.744451 1.507379,-0.549751 0.05243,0.05243 -0.265283,0.259632 -0.706026,0.460448 -0.440745,0.200816 -0.801353,0.241002 -0.801353,0.0893 z M 85.119996,48.32 c -0.426665,-0.275734 -0.426665,-0.310198 0,-0.310198 0.264,0 0.696,0.139587 0.96,0.310198 0.426666,0.275734 0.426666,0.310198 0,0.310198 -0.264,0 -0.696,-0.139587 -0.96,-0.310198 z m -9.919999,-0.625379 c 0.264,-0.178653 0.756,-0.327027 1.093334,-0.329722 0.818701,-0.0065 0.563283,0.176615 -0.613334,0.439805 -0.701095,0.156822 -0.830547,0.127136 -0.48,-0.110083 z"
         id="path394" />
      <path
         style="fill:#e85917;fill-opacity:1;stroke-width:0.32"
         d="m 19.782963,173.52014 c 5.336629,-0.0493 13.976629,-0.0492 19.199999,8e-5 5.223369,0.0493 0.857036,0.0896 -9.702963,0.0896 -10.56,-4e-5 -14.833666,-0.0404 -9.497036,-0.0897 z M 56.466887,173.36 c -0.08416,-0.22 -0.114438,-8.68 -0.06728,-18.8 l 0.08574,-18.4 0.07732,18.62952 0.07733,18.62952 3.599999,0.10208 3.6,0.10208 -3.610041,0.0684 c -2.645286,0.0501 -3.650938,-0.0385 -3.763068,-0.3316 z m 32.573109,0.16352 c 1.012,-0.0635 2.668,-0.0635 3.68,0 1.012,0.0635 0.184,0.11547 -1.84,0.11547 -2.024,0 -2.852,-0.052 -1.84,-0.11547 z m 29.423814,-0.002 c 1.5311,-0.0585 4.1231,-0.0588 5.76,-6.4e-4 1.6369,0.0582 0.38418,0.10609 -2.78382,0.10642 -3.168,3.2e-4 -4.50728,-0.0473 -2.97618,-0.10581 z m 37.59398,-0.002 c 4.25578,-0.0504 11.31178,-0.0504 15.67999,-1.1e-4 4.36822,0.0503 0.88621,0.0915 -7.73779,0.0916 -8.624,6e-5 -12.19799,-0.0411 -7.9422,-0.0915 z m 33.47389,0.003 c 1.01842,-0.0637 2.60242,-0.0631 3.51999,0.001 0.91758,0.0644 0.0843,0.11654 -1.85168,0.11581 -1.936,-6.4e-4 -2.68674,-0.0534 -1.66831,-0.11712 z m 30.24085,-3.2e-4 c 1.1069,-0.0627 2.8349,-0.0621 3.84,0.001 1.0051,0.0633 0.0995,0.11457 -2.01254,0.11394 -2.112,-6.4e-4 -2.93436,-0.0524 -1.82746,-0.11509 z M 11.52,168.51918 c 0,-0.0665 0.251999,-0.31845 0.559999,-0.56 0.507538,-0.39804 0.518857,-0.38672 0.120818,0.12082 C 11.782779,168.61304 11.52,168.78255 11.52,168.51918 Z M 115.51656,162.32 109.92,156.64 l 5.68,5.59657 c 5.27712,5.19962 5.82461,5.76343 5.59656,5.76343 -0.0459,0 -2.60188,-2.556 -5.68,-5.68 z m 10.40343,1.2 c 0.68744,-0.704 1.32189,-1.28 1.40989,-1.28 0.088,0 -0.40245,0.576 -1.08989,1.28 -0.68743,0.704 -1.32188,1.28 -1.40988,1.28 -0.088,0 0.40245,-0.576 1.08988,-1.28 z M 25.919999,152.83918 c 0,-0.0665 0.252,-0.31845 0.56,-0.56 0.507538,-0.39804 0.518856,-0.38672 0.120817,0.12082 -0.418038,0.53304 -0.680817,0.70255 -0.680817,0.43918 z m 27.199999,-50.01469 c -5.544,-1.66341 -10.296,-3.109037 -10.56,-3.212509 -0.264,-0.103472 -0.696,-0.234083 -0.96,-0.290247 -0.264,-0.05616 -7.28663,-2.122531 -15.605843,-4.591926 C 17.674941,92.260413 10.798942,90.24 10.714156,90.24 10.62937,90.24 10.56,71.016 10.56,47.52 V 4.8 h 107.35999 107.36 v 50.594237 c 0,43.862765 -0.0612,50.570753 -0.45998,50.417723 -0.253,-0.0971 -1.081,-0.34168 -1.84,-0.54354 -0.75901,-0.20186 -3.97202,-1.16108 -7.14002,-2.13159 -3.168,-0.97051 -6.192,-1.87602 -6.72,-2.01225 -1.20079,-0.3098 -10.59895,-3.09105 -16.96,-5.01907 -8.74,-2.649075 -19.83379,-5.863478 -20.24,-5.864502 -0.22,-6.4e-4 -0.40289,0.106992 -0.40643,0.238992 -0.004,0.132 -0.0137,3.674147 -0.0225,7.871437 -0.0147,6.988923 -0.0613,7.618623 -0.55356,7.479253 -2.6757,-0.7576 -19.20784,-5.72834 -19.57751,-5.886399 -0.264,-0.112877 -0.64914,-0.178701 -0.85587,-0.146275 -0.20672,0.03243 -0.46722,-0.08886 -0.57888,-0.26953 C 149.81358,99.347818 149.47489,99.2 149.1726,99.2 c -0.49547,0 -17.13811,-4.844634 -18.29261,-5.324934 -0.264,-0.109831 -0.768,-0.246605 -1.12,-0.303946 -0.352,-0.05734 -3.18873,-0.881098 -6.30384,-1.83057 -4.74623,-1.446633 -5.69386,-1.648092 -5.84913,-1.243475 -0.1019,0.265565 -0.17154,3.786727 -0.15474,7.824803 0.0168,4.038072 -0.0195,7.392002 -0.0807,7.453162 -0.10085,0.10085 -4.53753,-1.18539 -12.73162,-3.69103 -1.672,-0.51128 -8.008004,-2.3912 -14.080004,-4.17761 -6.072,-1.786406 -14.339359,-4.24215 -18.37191,-5.457206 C 68.155533,91.234138 64.591533,90.24 64.268087,90.24 c -0.547959,0 -0.590602,0.398522 -0.624896,5.84 -0.02026,3.212 -0.0071,6.74 0.02915,7.84 0.03627,1.1 -0.05516,1.98399 -0.203194,1.96443 -0.148038,-0.0196 -4.805152,-1.39654 -10.349151,-3.05994 z M 82.879996,78.704141 c 3.367027,-0.748733 5.39152,-1.930499 8.396026,-4.901056 2.677184,-2.646931 4.00407,-6.136634 4.092441,-10.763085 0.04147,-2.170931 -0.743968,-5.786115 -1.492841,-6.871203 -0.239594,-0.347159 -0.435626,-0.895658 -0.435626,-1.218883 0,-0.323226 -0.142352,-0.499706 -0.316336,-0.39218 -0.181395,0.112109 -0.23504,-0.01635 -0.125763,-0.301113 0.125235,-0.326359 0.0078,-0.496621 -0.342551,-0.496621 -0.293216,0 -0.485625,-0.108 -0.427574,-0.24 0.103485,-0.235315 -2.602022,-3.011802 -3.149373,-3.232 -0.153123,-0.0616 -0.242403,-0.2416 -0.198403,-0.4 0.044,-0.1584 -0.064,-0.306 -0.24,-0.328 -0.176,-0.02198 -0.464,-0.076 -0.64,-0.12 -0.176,-0.044 -0.472499,-0.098 -0.658886,-0.12 -0.186387,-0.02198 -0.234765,-0.20847 -0.107504,-0.414381 0.153702,-0.248694 0.05956,-0.308445 -0.280442,-0.177977 -0.281501,0.108022 -0.558953,0.055 -0.616563,-0.117824 C 86.158604,48.075824 81.906764,47.36 78.912969,47.36 c -2.880457,0 -6.161587,0.835235 -7.17583,1.826656 C 71.50457,49.413997 71.17449,49.6 71.003635,49.6 c -0.349449,0 -0.820246,0.363146 -2.301052,1.774902 C 67.505178,52.51647 64.827962,55.68 65.059287,55.68 c 0.08738,0 -0.18417,0.972 -0.603453,2.16 -0.847203,2.400461 -1.056675,6.84513 -0.433584,9.2 1.820864,6.881648 8.284128,11.92623 15.337747,11.971117 1.144,0.0073 2.727999,-0.130858 3.519999,-0.306976 z"
         id="path392" />
      <path
         style="fill:#e85917;fill-opacity:1;stroke-width:0.32"
         d="m 48.442161,169.76 c 6.4e-4,-2.112 0.05242,-2.93436 0.115088,-1.82746 0.06267,1.1069 0.06215,2.8349 -0.0013,3.84 -0.0633,1.0051 -0.114569,0.0995 -0.113939,-2.01254 z m 65.625809,2 -1.58797,-1.68 1.68,1.58797 c 0.924,0.87338 1.68,1.62938 1.68,1.68 0,0.23878 -0.29646,-0.0269 -1.77203,-1.58797 z m 18.73202,-4.24 c 3.25244,-3.256 5.98552,-5.92 6.07352,-5.92 0.088,0 -2.50108,2.664 -5.75352,5.92 -3.25243,3.256 -5.98551,5.92 -6.07351,5.92 -0.088,0 2.50108,-2.664 5.75351,-5.92 z m -9.28,-1.6 c 0.59705,-0.616 1.15755,-1.12 1.24555,-1.12 0.088,0 -0.3285,0.504 -0.92555,1.12 -0.59704,0.616 -1.15754,1.12 -1.24554,1.12 -0.088,0 0.3285,-0.504 0.92554,-1.12 z m 16.16,-5.28 c 0.31856,-0.352 0.6512,-0.64 0.7392,-0.64 0.088,0 -0.10064,0.288 -0.4192,0.64 -0.31855,0.352 -0.65119,0.64 -0.73919,0.64 -0.088,0 0.10064,-0.288 0.41919,-0.64 z m 78.38598,-12.16 c 0,-7.128 0.0421,-10.044 0.0936,-6.48 0.0515,3.564 0.0515,9.396 0,12.96 -0.0515,3.564 -0.0936,0.648 -0.0936,-6.48 z M 33.919999,144.19918 c 0,-0.0665 0.252,-0.31845 0.56,-0.56 0.507539,-0.39804 0.518857,-0.38672 0.120819,0.12082 -0.418039,0.53304 -0.680819,0.70255 -0.680819,0.43918 z M 48.415889,137.28 c 0,-0.968 0.05999,-1.364 0.133309,-0.88 0.07332,0.484 0.07332,1.276 0,1.76 -0.07332,0.484 -0.133309,0.088 -0.133309,-0.88 z"
         id="path390" />
      <path
         style="fill:#e85917;fill-opacity:1;stroke-width:0.32"
         d="m 63.815447,166.88 c 2.62e-4,-3.696 0.04684,-5.16417 0.103513,-3.26261 0.05668,1.90157 0.05646,4.92557 -3.2e-4,6.72 -0.05693,1.79444 -0.103302,0.23861 -0.10304,-3.45739 z m 115.826713,2.88 c 6.4e-4,-2.112 0.0524,-2.93436 0.11508,-1.82746 0.0627,1.1069 0.0622,2.8349 -0.001,3.84 -0.0633,1.0051 -0.11457,0.0995 -0.11394,-2.01254 z m -72.7663,-5.2 -4.63586,-4.72 4.72,4.63586 c 2.596,2.54972 4.72,4.67372 4.72,4.72 0,0.22901 -0.49756,-0.25111 -4.80414,-4.63586 z m 14.72413,3.31918 c 0,-0.0665 0.252,-0.31845 0.56,-0.56 0.50754,-0.39804 0.51886,-0.38672 0.12082,0.12082 -0.41803,0.53304 -0.68082,0.70255 -0.68082,0.43918 z m -108.479991,-0.96 c 0,-0.0665 0.252,-0.31845 0.56,-0.56 0.507538,-0.39804 0.518857,-0.38672 0.120818,0.12082 -0.418038,0.53304 -0.680818,0.70255 -0.680818,0.43918 z m 3.52,-3.84 c 0,-0.0665 0.252,-0.31845 0.56,-0.56 0.507538,-0.39804 0.518857,-0.38672 0.120818,0.12082 -0.418038,0.53304 -0.680818,0.70255 -0.680818,0.43918 z m 53.039998,-3.31872 c 3.212,-0.0522 8.468,-0.0522 11.679999,0 3.212,0.0522 0.584,0.0949 -5.839999,0.0949 -6.424,0 -9.052,-0.0427 -5.84,-0.0949 z m -49.519998,-0.52128 c 0,-0.0665 0.252,-0.31845 0.56,-0.56 0.507538,-0.39804 0.518856,-0.38672 0.120818,0.12082 -0.418038,0.53304 -0.680818,0.70255 -0.680818,0.43918 z m 4,-4.35918 c 0.318555,-0.352 0.651192,-0.64 0.739192,-0.64 0.088,0 -0.100637,0.288 -0.419192,0.64 -0.318556,0.352 -0.651192,0.64 -0.739192,0.64 -0.088,0 0.100636,-0.288 0.419192,-0.64 z m 39.647979,-7.2 c 3.2e-4,-2.64 0.05001,-3.67742 0.110141,-2.30537 0.06013,1.37204 0.05976,3.53204 -9.6e-4,4.8 -0.06058,1.26795 -0.109773,0.14537 -0.109325,-2.49463 z m -36.287979,3.55918 c 0,-0.0665 0.252,-0.31845 0.56,-0.56 0.507538,-0.39804 0.518856,-0.38672 0.120817,0.12082 -0.418038,0.53304 -0.680817,0.70255 -0.680817,0.43918 z m 3.52,-3.84 c 0,-0.0665 0.252,-0.31845 0.56,-0.56 0.507539,-0.39804 0.518857,-0.38672 0.120817,0.12082 -0.418038,0.53304 -0.680817,0.70255 -0.680817,0.43918 z m 148.547481,-8.11614 -0.0675,-3.59695 -15.6,-0.0862 -15.6,-0.0862 15.61004,-0.0769 c 12.67429,-0.0624 15.64048,0.003 15.77184,0.34475 0.089,0.2319 0.11484,1.9239 0.0574,3.76 l -0.10435,3.33837 z m -159.804517,-3.8429 c 5.336629,-0.0493 13.976629,-0.0492 19.199999,8e-5 5.223369,0.0493 0.857036,0.0896 -9.702963,0.0896 -10.56,-4e-5 -14.833666,-0.0404 -9.497036,-0.0897 z m 46.217034,5e-5 c 5.236,-0.0494 13.804,-0.0494 19.039999,0 5.236,0.0493 0.952,0.0897 -9.519999,0.0897 -10.472,0 -14.756,-0.0404 -9.52,-0.0897 z m 38.252543,0.003 c 1.10689,-0.0627 2.83489,-0.0622 3.84,0.001 1.0051,0.0633 0.0995,0.11457 -2.01254,0.11393 -2.112,-6.4e-4 -2.93436,-0.0524 -1.82746,-0.11508 z m 30.71999,0 c 1.1069,-0.0627 2.8349,-0.0622 3.84,0.001 1.00511,0.0633 0.0995,0.11457 -2.01254,0.11393 -2.112,-6.4e-4 -2.93435,-0.0524 -1.82746,-0.11508 z m 54.54746,6.4e-4 c 1.012,-0.0635 2.668,-0.0635 3.68,0 1.012,0.0635 0.184,0.11546 -1.84,0.11546 -2.024,0 -2.852,-0.052 -1.84,-0.11546 z m 30.4,0 c 1.012,-0.0635 2.668,-0.0635 3.68,0 1.012,0.0635 0.184,0.11546 -1.84,0.11546 -2.024,0 -2.852,-0.052 -1.84,-0.11546 z"
         id="path388" />
      <path
         style="fill:#e85917;fill-opacity:1;stroke-width:0.32"
         d="m 10.24,171.83796 v -1.60204 l 12.399999,-13.47724 c 6.82,-7.41248 12.447999,-13.60356 12.506665,-13.75796 C 35.206699,142.84273 29.785538,142.72 22.746666,142.72 H 10.24 v -3.52 -3.52 h 19.055968 19.055969 l -0.09597,1.71436 -0.09597,1.71435 -11.92,13.15169 c -6.555999,7.23343 -11.919999,13.30197 -11.919999,13.48564 0,0.22601 3.879066,0.33396 11.999999,0.33396 h 12 v 3.68 3.68 H 29.279999 10.24 Z M 56.639998,154.56 v -18.88 h 19.039999 19.039999 v 18.88 18.88 h -3.673635 -3.673635 l -0.08637,-6.8 -0.08637,-6.8 -11.498575,-0.0841 c -8.986272,-0.0657 -11.554627,0.004 -11.755101,0.32 -0.141088,0.22226 -0.258729,3.32011 -0.261424,6.88411 l -0.0049,6.48 h -3.52 -3.519999 z m 30.719998,-6.88394 v -4.96394 l -11.759999,0.0839 -11.76,0.0839 -0.08945,4.46459 c -0.0492,2.45553 -0.01773,4.65153 0.06996,4.88 0.126656,0.33006 2.561337,0.41541 11.849452,0.41541 H 87.359996 Z M 109.1972,166.63727 102.4,159.83454 V 147.75727 135.68 h 3.84 3.84 v 10.64343 10.64343 l 5.52333,5.51657 c 3.03784,3.03411 5.66733,5.51657 5.84333,5.51657 0.176,0 2.8745,-2.55746 5.99667,-5.68324 l 5.67666,-5.68325 V 146.15676 135.68 h 3.68 3.68 v 12.08279 12.08279 l -6.80273,6.79721 -6.80272,6.79721 h -5.44007 -5.44006 z m 38.96279,3.12273 v -3.68 h 6.08 6.08 V 154.4 142.72 h -6.08 -6.08 v -3.52 -3.52 h 15.68 15.68 v 3.52 3.52 h -5.92 -5.92 v 11.68 11.68 h 5.92 5.92 v 3.68 3.68 h -15.68 -15.68 z m 39.36,-15.20985 V 135.6603 l 3.81308,0.0898 3.81308,0.0899 11.14692,12.77902 c 6.13081,7.02847 11.32692,12.83647 11.54692,12.90667 0.31553,0.10069 0.4,-2.61495 0.4,-12.85902 V 135.68 h 3.52 3.52 v 18.89016 18.89015 l -3.74714,-0.0901 -3.74714,-0.0902 -11.16143,-12.8 c -6.13879,-7.04 -11.29257,-12.848 -11.45286,-12.90667 -0.1722,-0.063 -0.29143,5.20629 -0.29143,12.88 V 173.44 h -3.68 -3.68 z"
         id="path386" />
    </g>
    <path
       style="fill:#000000;fill-opacity:1;stroke-width:0.572106"
       d="m 10.297909,170.86667 c 0,-0.94462 3.610043,-5.27013 12.294982,-14.73173 6.76224,-7.36696 12.297366,-13.58756 12.300281,-13.82355 0.0029,-0.236 -5.529827,-0.42908 -12.294982,-0.42908 H 10.297909 v -3.43264 -3.43264 h 18.593448 18.593448 l -0.01187,1.5733 c -0.0087,1.15582 -1.245111,2.93956 -4.659486,6.72224 -2.556192,2.83193 -7.992762,8.88195 -12.081267,13.4445 l -7.433645,8.29553 6.229044,0.3563 c 3.425974,0.19596 8.867883,0.38905 12.093131,0.42908 l 5.864088,0.0728 v 3.14659 3.14658 H 28.891357 10.297909 Z"
       id="path2491109" />
    <path
       style="fill:#000000;fill-opacity:1;stroke-width:0.572106"
       d="m 56.638502,153.61048 v -18.59345 h 18.593447 18.593448 v 18.59345 18.59345 h -3.432636 -3.432637 v -6.59083 -6.59082 l -11.871201,0.15463 -11.871201,0.15463 -0.161764,6.4362 -0.161763,6.43619 h -3.127847 -3.127846 z m 30.321622,-6.57922 v -5.14895 H 74.945896 62.931669 v 4.76755 c 0,2.62215 0.171632,4.93918 0.381404,5.14895 0.209772,0.20978 5.616174,0.38141 12.014228,0.38141 h 11.632823 z"
       id="path2491111" />
    <path
       style="fill:#000000;fill-opacity:1;stroke-width:0.572106"
       d="m 108.83385,165.75878 -6.42686,-6.44514 v -12.1483 -12.14831 h 3.43263 3.43264 v 10.73892 10.73892 l 5.00593,4.88671 c 7.52709,7.34782 6.13322,7.26272 12.73415,0.77743 l 5.71627,-5.61612 v -10.76293 -10.76293 h 3.43264 3.43263 v 12.16659 12.16659 l -6.44514,6.42686 -6.44515,6.42686 h -5.72144 -5.72144 z"
       id="path2491113" />
    <path
       style="fill:#000000;fill-opacity:1;stroke-width:0.572106"
       d="m 148.17547,169.05735 v -3.14659 h 6.00712 6.00711 v -12.01422 -12.01423 h -6.00711 -6.00712 v -3.43264 -3.43264 h 15.44687 15.44686 v 3.43264 3.43264 h -6.00711 -6.00711 v 12.01423 12.01422 h 6.00711 6.00711 v 3.14659 3.14658 h -15.44686 -15.44687 z"
       id="path2491115" />
    <path
       style="fill:#000000;fill-opacity:1;stroke-width:0.572106"
       d="m 187.65079,153.58207 v -18.62185 l 3.57567,0.38387 c 1.96661,0.21113 3.72517,0.54573 3.9079,0.74354 0.18273,0.19782 4.02147,4.60756 8.53053,9.79942 9.17966,10.56972 13.19012,14.87476 13.85694,14.87476 0.24782,0 0.45059,-5.79258 0.45059,-12.87239 v -12.87239 h 3.43263 3.43264 v 18.59345 18.59345 h -3.67495 -3.67496 l -11.34283,-12.98432 -11.34283,-12.98433 -0.36221,3.6876 c -0.19921,2.02818 -0.3923,7.87113 -0.42908,12.98433 l -0.0669,9.29672 h -3.14658 -3.14659 z"
       id="path2491117" />
  </g>
</svg>
